<svg height="512pt" viewBox="0 -73 512 512" width="512pt" xmlns="http://www.w3.org/2000/svg"><path d="m474.5 357.5h-437c-16.570312 0-30-13.429688-30-30v-10c0-5.523438 4.476562-10 10-10h477c5.523438 0 10 4.476562 10 10v10c0 16.570312-13.429688 30-30 30zm0 0" fill="#d8d5ed"/><path d="m494.5 307.5h-30c5.523438 0 10 4.476562 10 10v10c0 16.570312-13.429688 30-30 30h30c16.570312 0 30-13.429688 30-30v-10c0-5.523438-4.476562-10-10-10zm0 0" fill="#bebade"/><path d="m451 307.5h-390c-11.046875 0-20-8.953125-20-20v-260c0-11.046875 8.953125-20 20-20h390c11.046875 0 20 8.953125 20 20v260c0 11.046875-8.953125 20-20 20zm0 0" fill="#50536e"/><path d="m451 7.5h-30c11.046875 0 20 8.953125 20 20v260c0 11.046875-8.953125 20-20 20h30c11.046875 0 20-8.953125 20-20v-260c0-11.046875-8.953125-20-20-20zm0 0" fill="#484b63"/><path d="m441 37.5v240h-370v-240zm0 0" fill="#b5fcff"/><path d="m411 37.5h30v240h-30zm0 0" fill="#71f6fc"/><path d="m297.8125 333.5h-83.628906c-8.386719 0-15.183594-6.800781-15.183594-15.1875v-10.8125h114v10.8125c0 8.386719-6.800781 15.1875-15.1875 15.1875zm0 0" fill="#a7a4cf"/><path d="m235 80.507812h176v148h-176zm0 0" fill="#4fc6f5"/><path d="m235 197.253906 52.722656-46.269531c1.382813-1.210937 3.433594-1.28125 4.894532-.164063l101.523437 77.6875h-159.140625zm0 0" fill="#ffbd54"/><path d="m382.214844 120.769531c0 10.445313-8.46875 18.914063-18.914063 18.914063-10.449219 0-18.917969-8.46875-18.917969-18.914063 0-10.449219 8.46875-18.917969 18.917969-18.917969 10.445313 0 18.914063 8.46875 18.914063 18.917969zm0 0" fill="#ffd659"/><path d="m357.832031 200.726562 53.167969-46.21875v74h-16.859375zm0 0" fill="#ffa954"/><path d="m227.5 80.507812v148c0 4.144532 3.359375 7.5 7.5 7.5h176c4.144531 0 7.5-3.355468 7.5-7.5v-148c0-4.144531-3.355469-7.5-7.5-7.5h-176c-4.140625 0-7.5 3.355469-7.5 7.5zm15 140.5v-20.355468l47.929688-42.058594 81.566406 62.414062zm161 0h-6.820312l-26.988282-20.652343 33.808594-29.390625zm0-133v63.082032l-45.96875 39.960937-60.355469-46.183593c-4.285156-3.277344-10.339843-3.078126-14.398437.484374l-40.277344 35.34375v-92.6875zm0 0"/><path d="m363.300781 147.1875c14.5625 0 26.414063-11.851562 26.414063-26.417969 0-14.566406-11.851563-26.414062-26.414063-26.414062-14.566406 0-26.417969 11.847656-26.417969 26.414062 0 14.566407 11.851563 26.417969 26.417969 26.417969zm0-37.832031c6.292969 0 11.414063 5.121093 11.414063 11.414062 0 6.296875-5.121094 11.417969-11.414063 11.417969-6.296875 0-11.417969-5.121094-11.417969-11.417969 0-6.292969 5.121094-11.414062 11.417969-11.414062zm0 0"/><path d="m494.5 300h-19.019531c1.925781-3.753906 3.019531-8 3.019531-12.5v-260c0-15.164062-12.335938-27.5-27.5-27.5h-390c-15.164062 0-27.5 12.335938-27.5 27.5v26.667969c0 4.140625 3.359375 7.5 7.5 7.5s7.5-3.359375 7.5-7.5v-26.667969c0-6.894531 5.605469-12.5 12.5-12.5h390c6.894531 0 12.5 5.605469 12.5 12.5v260c0 6.894531-5.605469 12.5-12.5 12.5h-390c-6.894531 0-12.5-5.605469-12.5-12.5v-201.332031c0-4.144531-3.359375-7.5-7.5-7.5s-7.5 3.355469-7.5 7.5v201.332031c0 4.5 1.09375 8.746094 3.019531 12.5h-19.019531c-9.648438 0-17.5 7.851562-17.5 17.5v10c0 20.679688 16.820312 37.5 37.5 37.5h378.167969c4.140625 0 7.5-3.355469 7.5-7.5s-3.359375-7.5-7.5-7.5h-378.167969c-12.40625 0-22.5-10.09375-22.5-22.5v-10c0-1.378906 1.121094-2.5 2.5-2.5h174v3.3125c0 12.511719 10.175781 22.6875 22.6875 22.6875h83.628906c12.507813 0 22.683594-10.175781 22.683594-22.6875v-3.3125h174c1.378906 0 2.5 1.121094 2.5 2.5v10c0 12.40625-10.09375 22.5-22.5 22.5h-25.832031c-4.144531 0-7.5 3.355469-7.5 7.5s3.355469 7.5 7.5 7.5h25.832031c20.679688 0 37.5-16.820312 37.5-37.5v-10c0-9.648438-7.851562-17.5-17.5-17.5zm-189 18.3125c0 4.238281-3.445312 7.6875-7.6875 7.6875h-83.628906c-4.238282 0-7.683594-3.445312-7.683594-7.6875v-3.3125h99zm0 0"/><path d="m384 30h-313c-4.140625 0-7.5 3.355469-7.5 7.5v240c0 4.144531 3.359375 7.5 7.5 7.5h370c4.144531 0 7.5-3.355469 7.5-7.5v-240c0-4.144531-3.355469-7.5-7.5-7.5h-25.332031c-4.144531 0-7.5 3.355469-7.5 7.5s3.355469 7.5 7.5 7.5h17.832031v225h-355v-225h305.5c4.144531 0 7.5-3.355469 7.5-7.5s-3.355469-7.5-7.5-7.5zm0 0"/><path d="m196 84.457031h-80c-4.140625 0-7.5 3.355469-7.5 7.5s3.359375 7.5 7.5 7.5h80c4.140625 0 7.5-3.355469 7.5-7.5s-3.359375-7.5-7.5-7.5zm0 0"/><path d="m196 113.492188h-80c-4.140625 0-7.5 3.355468-7.5 7.5 0 4.144531 3.359375 7.5 7.5 7.5h80c4.140625 0 7.5-3.355469 7.5-7.5 0-4.144532-3.359375-7.5-7.5-7.5zm0 0"/><path d="m196 142.527344h-80c-4.140625 0-7.5 3.355468-7.5 7.5 0 4.144531 3.359375 7.5 7.5 7.5h80c4.140625 0 7.5-3.355469 7.5-7.5 0-4.144532-3.359375-7.5-7.5-7.5zm0 0"/><path d="m196 171.5625h-80c-4.140625 0-7.5 3.359375-7.5 7.5 0 4.144531 3.359375 7.5 7.5 7.5h80c4.140625 0 7.5-3.355469 7.5-7.5 0-4.140625-3.359375-7.5-7.5-7.5zm0 0"/><path d="m196 200.597656h-80c-4.140625 0-7.5 3.355469-7.5 7.5 0 4.144532 3.359375 7.5 7.5 7.5h80c4.140625 0 7.5-3.355468 7.5-7.5 0-4.144531-3.359375-7.5-7.5-7.5zm0 0"/></svg>